<svg xmlns="http://www.w3.org/2000/svg" viewBox="0 0 458.97 262.21"><defs><style>.cls-1{fill:#3a2e39;}.cls-2{fill:#f15152;}</style></defs><title>Datový zdroj 2</title><g id="Vrstva_2" data-name="Vrstva 2"><g id="Vrstva_1-2" data-name="Vrstva 1"><path class="cls-1" d="M65,59.56a8.48,8.48,0,0,0-.81-1.29A4.51,4.51,0,0,0,62,56.82a10.09,10.09,0,0,0-4.24-.35,25.68,25.68,0,0,0-7.21,2.09,41.74,41.74,0,0,0-6.69,3.55,56.14,56.14,0,0,0-6,4.49,49.06,49.06,0,0,0-5,4.91,22.46,22.46,0,0,0-3.36,4.76,9.34,9.34,0,0,0-1.25,5.45,4.65,4.65,0,0,0,2.52,3.5,12.67,12.67,0,0,0,6.12,1.17,34.8,34.8,0,0,0,9.13-1.52,51.41,51.41,0,0,0,8-2.93,46.11,46.11,0,0,0,6.57-3.79,40.52,40.52,0,0,0,5.37-4.51q2.41-2.42,4.57-5c4.5-.31,6.76-.39,11.26-.38a33.32,33.32,0,0,1-6.19,8.52,46.61,46.61,0,0,1-9.33,7.16,81.45,81.45,0,0,1-12.47,5.91c-4.7,1.81-9.85,3.46-15.44,5.1C32,96.79,26,98.3,20.64,99.36a80.23,80.23,0,0,1-13.36,1.78c-3.46,0-5.73-.48-6.75-1.73s-.55-3.24,1.25-6A46.56,46.56,0,0,1,7.21,87c2.3-2.36,4.91-4.79,7.77-7.28s5.9-5,9.08-7.41,6.42-4.8,9.71-7,6.58-4.32,9.91-6.24a99,99,0,0,1,9.88-5,90.45,90.45,0,0,1,9.07-3.45A35.73,35.73,0,0,1,69.31,49a16.32,16.32,0,0,1,5.15.2A17.24,17.24,0,0,1,79,51C73.56,54.3,70.76,56,65,59.56Z"/><path class="cls-1" d="M137.36,91.46a102.37,102.37,0,0,1-16.58-5.23,86.57,86.57,0,0,1-13.67-6.9,33.93,33.93,0,0,1-9.06-8,13.86,13.86,0,0,1-3-9.08,18.07,18.07,0,0,1,3.54-9.84,36.33,36.33,0,0,1,8.65-8.52,54.73,54.73,0,0,1,12.46-6.62,56.45,56.45,0,0,1,15.48-3.56,45.26,45.26,0,0,1,15.7,1.18,35.22,35.22,0,0,1,12.85,6.28,33,33,0,0,1,8.85,10.68,32,32,0,0,1,3.64,13.65,29.86,29.86,0,0,1-2.43,13.72,22.27,22.27,0,0,1-7.86,9.55,25.81,25.81,0,0,1-12.39,4.1A52.43,52.43,0,0,1,137.36,91.46Zm2.48-6.9a9.08,9.08,0,0,0,5.55-.49,10.64,10.64,0,0,0,4.3-3.58,17.22,17.22,0,0,0,2.65-6,26.17,26.17,0,0,0,.71-7.54,55.9,55.9,0,0,0-1.53-11,27,27,0,0,0-3.78-8.77,16.79,16.79,0,0,0-6.26-5.58,17.35,17.35,0,0,0-9-1.58,10.4,10.4,0,0,0-4.92,1.64,15.92,15.92,0,0,0-4.13,3.75,18.84,18.84,0,0,0-2.86,5.18,16.89,16.89,0,0,0-1,6.12,32,32,0,0,0,1.56,9.38,30.66,30.66,0,0,0,4.13,8.32,28.12,28.12,0,0,0,6.37,6.51A20.68,20.68,0,0,0,139.84,84.56Z"/><path class="cls-1" d="M233.08,22.61c-.42-1.22-1-2.66-1.58-4.31A23.83,23.83,0,0,0,229,13.56a15.21,15.21,0,0,0-3.68-3.82,8.92,8.92,0,0,0-5.11-1.61A4.2,4.2,0,0,0,216.08,11c-.85,1.94-1.08,4.88-.71,8.92.64,7,.92,10.5,1.4,17.74,7.06,1,10.58,1.5,17.62,2.68.25,4,.36,6.06.55,10.17-7-1.44-10.55-2.12-17.59-3.36q2,37,.34,74c-8.09-4-12.15-6-20.38-9.79.42-22.54-.17-45-1.41-67.47-5.54-.73-8.32-1.05-13.87-1.59-.21-3.25-.33-4.86-.56-8,5.54.3,8.31.51,13.85,1-.23-3.11-.35-4.65-.6-7.7a23.65,23.65,0,0,1,1.28-10,25.18,25.18,0,0,1,5.18-8.63,27.31,27.31,0,0,1,8.5-6.31A26.26,26.26,0,0,1,221.09,0a23.61,23.61,0,0,1,9.15,1.55,26.47,26.47,0,0,1,6.88,4,29.5,29.5,0,0,1,4.94,5.09,47.3,47.3,0,0,1,3.24,4.79C240.45,18.35,238,19.79,233.08,22.61Z"/><path class="cls-1" d="M284.67,30.43c-.43-1.44-1-3.15-1.62-5.1a33.48,33.48,0,0,0-2.51-5.7,20.15,20.15,0,0,0-3.69-4.8,8.94,8.94,0,0,0-5.05-2.44c-1.9-.27-3.23.7-4,2.9s-1,5.67-.55,10.5c.71,8.31,1,12.55,1.47,21.18,7,1.51,10.46,2.3,17.41,3.93.24,4.64.34,7,.51,11.72-7-1.77-10.44-2.65-17.42-4.36a706.91,706.91,0,0,1-2.63,87.44c-8.06-3.86-12.06-5.89-20.07-10a689.64,689.64,0,0,0,1.45-82.46c-5.5-1.22-8.25-1.82-13.76-2.94-.19-4.09-.3-6.12-.55-10.14,5.52.92,8.28,1.41,13.78,2.45-.22-3.84-.34-5.74-.61-9.52A35.14,35.14,0,0,1,248,20.93,28.08,28.08,0,0,1,253,11a22.33,22.33,0,0,1,8.29-6.5A20.22,20.22,0,0,1,272.41,3a23,23,0,0,1,9,2.95,32.24,32.24,0,0,1,6.8,5.37,39.78,39.78,0,0,1,5,6.27c1.35,2.14,2.44,4.05,3.27,5.69C291.81,26.11,289.45,27.56,284.67,30.43Z"/><path class="cls-1" d="M321.22,169.77A26.46,26.46,0,0,1,308.14,161a65.67,65.67,0,0,1-9.88-15.85,96.41,96.41,0,0,1-6.28-19.6,86.1,86.1,0,0,1-1.9-20.64A93.52,93.52,0,0,1,293,83.33a46.14,46.14,0,0,1,7-15.53,24.22,24.22,0,0,1,10.84-8.56c4.24-1.62,9-1.76,14.34-.39a36.12,36.12,0,0,1,13.31,6.63A52,52,0,0,1,349.33,77a59.22,59.22,0,0,1,7.46,15.12,58,58,0,0,1,3,17.51A487,487,0,0,1,311,98.22a148.29,148.29,0,0,0,1.31,17.23,105.17,105.17,0,0,0,3.19,15.48,45.27,45.27,0,0,0,5.07,11.67c2,3.12,4.36,5,7.08,5.73a12.88,12.88,0,0,0,7.14-.26,19.6,19.6,0,0,0,6.8-3.87,27.82,27.82,0,0,0,5.62-6.65,30.07,30.07,0,0,0,3.6-8.69c4.39,1.83,6.6,2.7,11.06,4.32A57.07,57.07,0,0,1,355.56,149a55.84,55.84,0,0,1-10,12.62,34.37,34.37,0,0,1-12.08,7.55A20.27,20.27,0,0,1,321.22,169.77Zm13.91-76.05a42,42,0,0,0-1.52-8.63A33.5,33.5,0,0,0,330.7,78a19.28,19.28,0,0,0-4-5.06A11.31,11.31,0,0,0,322,70.31a5.19,5.19,0,0,0-3.78.44A8.63,8.63,0,0,0,315,73.9a20.79,20.79,0,0,0-2.41,5.66,39,39,0,0,0-1.28,8C320.81,90.14,325.58,91.41,335.13,93.72Z"/><path class="cls-1" d="M414.14,165.78c-5.88,2-11,2.55-15.81,1.33a27.47,27.47,0,0,1-13-7.9,44.23,44.23,0,0,1-9.1-15.11c-2.25-6-2.67-12.85-2.68-19.61,0-8.09.37-15.19,2-21.73a54.91,54.91,0,0,1,6.57-16.18,22.9,22.9,0,0,1,9.61-8.88c3.73-1.71,8-2,13-1A50.83,50.83,0,0,1,418,81.38,108.31,108.31,0,0,1,430.88,89a89.38,89.38,0,0,1,11.57,9.28,33.45,33.45,0,0,1,7.81,10.65c-17.91.72-35.77,2.12-53.68,2.93a101.59,101.59,0,0,0,3,14.58,52.18,52.18,0,0,0,4.83,11.81,19.44,19.44,0,0,0,6.59,7.13,10.54,10.54,0,0,0,8.41,1,29.55,29.55,0,0,0,8.06-3.58,45.83,45.83,0,0,0,7.42-5.7,37,37,0,0,0,5.7-6.71,17.53,17.53,0,0,0,2.81-7l15.44-.15c-.47,3.79-2.25,7.68-5.2,11.79a84.49,84.49,0,0,1-11,12.23,107.19,107.19,0,0,1-14.08,11.13A64.76,64.76,0,0,1,414.14,165.78Zm5.95-63.51a27.36,27.36,0,0,0-2.94-6.22,29.61,29.61,0,0,0-4-5,20.84,20.84,0,0,0-4.57-3.47A12.75,12.75,0,0,0,403.78,86a5.33,5.33,0,0,0-3.47.78,7.75,7.75,0,0,0-2.65,3.1,18.31,18.31,0,0,0-1.61,5.28,33.83,33.83,0,0,0-.35,7.24C405.64,102.48,410.2,102.37,420.09,102.27Z"/><path class="cls-2" d="M73.2,158.63c.24,3.14.39,4.71.75,7.84-4.39-.22-6.57-.31-10.86-.44a44.05,44.05,0,0,1,3.17,5.86,31.46,31.46,0,0,1,2.13,6.75A26.14,26.14,0,0,1,68.66,189a12.36,12.36,0,0,1-3.59,6.77,12.53,12.53,0,0,1-7,3,33.84,33.84,0,0,1-13.59-1.6c-1.24-.41-2.37-.8-3.39-1.18a2.33,2.33,0,0,0-.33,2,8.91,8.91,0,0,0,1.07,2.82,4.23,4.23,0,0,0,.67.85,6.92,6.92,0,0,0,1.35.93,23.27,23.27,0,0,0,2.53,1.19c1.06.44,2.47,1,4.25,1.62s4,1.37,6.61,2.22,5.81,1.82,9.56,2.93a49.28,49.28,0,0,1,9.24,3.7,36.59,36.59,0,0,1,7,4.81,29.11,29.11,0,0,1,5,5.71,39.43,39.43,0,0,1,3.39,6.32A29.15,29.15,0,0,1,94,240.91c.11,2.62-.5,4.47-1.82,5.48s-3.33,1.14-6,.37a43.37,43.37,0,0,1-10.32-5.19c-3.75-2.37-7.19-4.83-10.43-7.24s-6.2-4.69-8.92-6.81-5.19-4.05-7.39-5.81-4-3.28-5.49-4.62a17.78,17.78,0,0,1-2.37-2.54,5.09,5.09,0,0,1-.94-2,3.28,3.28,0,0,1,.2-1.81,7.31,7.31,0,0,1,1-1.76,62.46,62.46,0,0,1-6-4,20.3,20.3,0,0,1-4-3.78,7.31,7.31,0,0,1-1.3-2.54,5.13,5.13,0,0,1,0-2.43,4.53,4.53,0,0,1,1.21-2.15,7.34,7.34,0,0,1,2.38-1.64c-2-1.12-3.92-2.27-5.71-3.43A46.52,46.52,0,0,1,23,185.29a32.3,32.3,0,0,1-4.1-4.26A23.56,23.56,0,0,1,15.84,176a14.15,14.15,0,0,1-1.3-8.17A13.19,13.19,0,0,1,18.05,161a22.67,22.67,0,0,1,7.46-5.11,32.23,32.23,0,0,1,10.54-2.54A30.12,30.12,0,0,1,47,154.48a28.19,28.19,0,0,1,4.55,1.79,13.87,13.87,0,0,1,3.35,2.26C62.05,158.44,65.72,158.46,73.2,158.63Zm-2.69,63q-3.29-1.11-6.58-2.36c-2.2-.83-4.28-1.66-6.25-2.47s-3.75-1.58-5.38-2.31-2.95-1.33-4-1.81a1.51,1.51,0,0,0-.11,1.15,7.28,7.28,0,0,0,.58,1.6,14.63,14.63,0,0,0,1.07,1.84,22.72,22.72,0,0,0,1.43,1.92,32.84,32.84,0,0,0,3.31,3.35c1.4,1.27,3,2.61,4.9,4.05s3.9,2.91,6.14,4.42a70.18,70.18,0,0,0,7,4.21,28.1,28.1,0,0,0,6.66,2.65,7.58,7.58,0,0,0,4.1,0,2.54,2.54,0,0,0,1.71-2,5,5,0,0,0-.59-3.18,19,19,0,0,0-5.54-6.6A29.07,29.07,0,0,0,70.51,221.59Zm-22.89-28a3.48,3.48,0,0,0,2.86-.6,5.38,5.38,0,0,0,1.73-2.77,14.37,14.37,0,0,0,.52-4.43,22.57,22.57,0,0,0-.84-5.5A50.35,50.35,0,0,0,49,172.23a35.81,35.81,0,0,0-3.91-6.61,17.8,17.8,0,0,0-4.54-4.36,8.22,8.22,0,0,0-4.8-1.43,5.56,5.56,0,0,0-3.66,1.39,7,7,0,0,0-2,3.31,12.6,12.6,0,0,0-.32,4.65A25.91,25.91,0,0,0,31,174.7a33.2,33.2,0,0,0,3.08,6.72,36.81,36.81,0,0,0,4.22,5.77,29.47,29.47,0,0,0,4.72,4.3A11.26,11.26,0,0,0,47.62,193.6Z"/><path class="cls-2" d="M122.56,174c-.91-1.1-1.75-2-2.51-2.85a16.36,16.36,0,0,0-2.22-2,9.78,9.78,0,0,0-2.27-1.21,12.3,12.3,0,0,0-2.62-.6,9,9,0,0,0-3.92.39,10.87,10.87,0,0,0-3.49,1.89,13.52,13.52,0,0,0-2.77,3.06,12.49,12.49,0,0,0-1.7,3.86,365.91,365.91,0,0,0,11.13,56.2c-6.57-1.78-9.8-2.68-16.16-4.51A296.37,296.37,0,0,1,81.1,160.53c5-3.19,7.59-4.83,13-8.11l6,8.22a23.4,23.4,0,0,1,7-6.15,14.1,14.1,0,0,1,8.47-1.79,14.88,14.88,0,0,1,7.78,3.13,37.82,37.82,0,0,1,6,5.78C126.44,166.61,125.08,169.1,122.56,174Z"/><path class="cls-2" d="M171.9,249.08a35,35,0,0,1-12.71-6,58.33,58.33,0,0,1-11.37-11,64,64,0,0,1-8.69-14.52,54.27,54.27,0,0,1-4.34-16.81,43.23,43.23,0,0,1,1.56-17.07,29.89,29.89,0,0,1,7.52-12.63,28,28,0,0,1,12.07-6.94,26.74,26.74,0,0,1,14.15,0,30,30,0,0,1,12.7,6.89,43.18,43.18,0,0,1,9.1,11.75,63.39,63.39,0,0,1,5.62,14.78,68.24,68.24,0,0,1,2,16.32,60.22,60.22,0,0,1-1.83,15.81,35,35,0,0,1-5.42,11.9,20.25,20.25,0,0,1-8.69,6.93A19.05,19.05,0,0,1,171.9,249.08Zm.87-9.25a4.14,4.14,0,0,0,4-1.16,12.56,12.56,0,0,0,2.93-5,36.46,36.46,0,0,0,1.72-7.88,67.16,67.16,0,0,0,.41-9.79c-.13-5.16-.42-10.12-.91-14.86a74.62,74.62,0,0,0-2.36-12.88,30.65,30.65,0,0,0-4.46-9.68,12.64,12.64,0,0,0-7.36-5.06,5,5,0,0,0-4.41,1.17,15.17,15.17,0,0,0-3.91,5.09,32.14,32.14,0,0,0-2.69,8,42.77,42.77,0,0,0-.82,10,84.31,84.31,0,0,0,1.8,15.31,68.79,68.79,0,0,0,4,12.94,38,38,0,0,0,5.52,9.3A12.31,12.31,0,0,0,172.77,239.83Z"/><path class="cls-2" d="M227.9,185.35c-.85,17.48-.9,34.79-.18,52.28a14.36,14.36,0,0,0,.82,4.12,14.16,14.16,0,0,0,1.82,3.53,10.74,10.74,0,0,0,2.5,2.53,6.84,6.84,0,0,0,2.92,1.23,3.15,3.15,0,0,0,1.85-.35,8,8,0,0,0,2-1.46,17,17,0,0,0,3.69-5.39c-1-16.93-1.12-33.78-.61-50.73,5.83,2.22,8.76,3.3,14.76,5.36a604.17,604.17,0,0,0,2.9,65.35c-6.24-.31-9.34-.54-15.48-1.13-.25-2.5-.37-3.75-.6-6.26a21.69,21.69,0,0,1-5.92,4.76,10.52,10.52,0,0,1-6.45,1.28,16.92,16.92,0,0,1-7.25-2.77,25.35,25.35,0,0,1-6.17-5.87,32.06,32.06,0,0,1-4.4-8.14,31.31,31.31,0,0,1-1.92-9.48c-.6-18.3-.34-36.36.82-54.63C219.1,181.88,222.05,183.05,227.9,185.35Z"/><path class="cls-2" d="M307.73,225.77a12.59,12.59,0,0,0-.56-3.61,9.54,9.54,0,0,0-1.4-2.78,7.43,7.43,0,0,0-2-1.85,5.69,5.69,0,0,0-2.26-.85,9.57,9.57,0,0,0-2.65.06,16.27,16.27,0,0,0-3.08.76,20.84,20.84,0,0,0-3.24,1.45,18.63,18.63,0,0,0-3.08,2.14q.64,20.41,2.76,40.75c-6.58.31-9.82.38-16.24.37-1.86-18.42-3-36.71-3.3-55.22,4.48-1.61,6.76-2.38,11.47-3.86,2,.5,3,.75,5.06,1.22,0,2.36,0,3.54,0,5.89a22.16,22.16,0,0,1,8.63-2.56,38.58,38.58,0,0,1,9.63.34,26.69,26.69,0,0,1,7.35,2.29,28.23,28.23,0,0,1,6.23,4,18.63,18.63,0,0,1,4.23,5.08,11,11,0,0,1,1.43,5.77c-.28,11.17-.43,22.31-.46,33.48-6.91,1-10.31,1.38-17,2C308.58,249,308.06,237.43,307.73,225.77Z"/><path class="cls-2" d="M377.55,245a63.39,63.39,0,0,1-7.14,4.05,42.44,42.44,0,0,1-7.14,2.75,22.9,22.9,0,0,1-9.31.8,16.31,16.31,0,0,1-7.47-2.93,15.4,15.4,0,0,1-4.94-6.08,16.46,16.46,0,0,1-1.43-8.28,17.83,17.83,0,0,1,3.37-8.89,30.41,30.41,0,0,1,8.17-7.8,48.14,48.14,0,0,1,11.86-5.57,60.37,60.37,0,0,1,14.06-2.72c1.88-.15,3.61-.21,5.21-.19a40.27,40.27,0,0,1,4.27.26c1.51-6.25,2.21-9.32,3.61-15.92,5.95-2.06,8.94-3.1,14.9-5.19,2.38-.16,3.57-.25,5.94-.45a403.51,403.51,0,0,1-18.8,52.89c-6.23,2.28-9.4,3.35-15.82,5.34C377.15,246.26,377.29,245.84,377.55,245Zm6.52-22.71a4.76,4.76,0,0,0-1.91-5.47,8.33,8.33,0,0,0-3.12-1.31,12,12,0,0,0-3.8-.21,14.17,14.17,0,0,0-5.14,1.53,17.64,17.64,0,0,0-4.62,3.39,20.66,20.66,0,0,0-3.53,4.89,18.94,18.94,0,0,0-1.93,5.93,16.74,16.74,0,0,0,.1,6.26,11.73,11.73,0,0,0,2.06,4.73,7.46,7.46,0,0,0,3.56,2.61,8.16,8.16,0,0,0,4.81,0,15.32,15.32,0,0,0,2.05-.71c.75-.32,1.51-.7,2.28-1.12s1.51-.87,2.24-1.36a18.54,18.54,0,0,0,2-1.51C381.17,233.07,382.17,229.53,384.07,222.3Z"/><path class="cls-2" d="M418.42,225.22c-.11,1.31.35,2.07,1.38,2.26s2.72-.26,5.13-1.36c1-.46,2-1,2.93-1.5s1.84-1.07,2.67-1.62,1.55-1.07,2.17-1.57a10.54,10.54,0,0,0,1.42-1.34,2.62,2.62,0,0,0,.8-1.45c0-.33-.25-.54-.71-.63a7,7,0,0,0-1.93,0c-.84.08-1.79.2-2.86.37-1.72.27-3.44.46-5.17.56a16.36,16.36,0,0,1-4.52-.29A4.44,4.44,0,0,1,417,217c-.56-.79-.53-1.93.13-3.39a12.9,12.9,0,0,1,3.24-4.2,30.47,30.47,0,0,1,5.69-4,60,60,0,0,1,7.6-3.49,90.94,90.94,0,0,1,8.86-2.84c2.82-.76,5.21-1.33,7.18-1.69a31.88,31.88,0,0,1,4.85-.56,8,8,0,0,1,3,.39,2.79,2.79,0,0,1,1.5,1.18c-4.18,2.06-6.3,3.08-10.55,5.1.13-.74,0-1.26-.37-1.54a2.64,2.64,0,0,0-1.53-.43,8.45,8.45,0,0,0-2,.24c-.73.18-1.39.35-2,.53-1.07.31-2.12.68-3.15,1.08s-2,.84-2.86,1.29a15,15,0,0,0-2.26,1.4,4.65,4.65,0,0,0-1.33,1.42,1.28,1.28,0,0,0-.09,1.42,2.25,2.25,0,0,0,1.45.75,11.91,11.91,0,0,0,2.65.13,29.47,29.47,0,0,0,3.47-.36c1.91-.29,3.67-.55,5.28-.76a20,20,0,0,1,3.8-.24c.93.06,1.44.3,1.54.75s-.39,1.17-1.43,2.22a47.87,47.87,0,0,1-4.18,3.68c-1.65,1.32-3.58,2.73-5.77,4.25s-4.64,3.12-7.37,4.78-5.75,3.39-9.16,5.08a48.51,48.51,0,0,1-7.07,3,13.57,13.57,0,0,1-4.28.74,3.53,3.53,0,0,1-2.34-.78,6.41,6.41,0,0,1-1.23-1.58Z"/></g></g></svg>